<svg id="Layer_1" enable-background="new 0 0 512 512" height="32" viewBox="0 0 512 512" width="32" xmlns="http://www.w3.org/2000/svg"><g><path d="m323.365 439.491c-72.686-32.059-119.653-104.084-119.653-183.491s46.966-151.432 119.652-183.49c5.438-2.398 8.947-7.781 8.947-13.724s-3.509-11.326-8.947-13.724c-29.361-12.95-60.62-19.516-92.91-19.516-61.557 0-119.429 23.971-162.957 67.499-43.525 43.526-67.497 101.398-67.497 162.955s23.972 119.429 67.499 162.957c43.527 43.527 101.4 67.499 162.957 67.499 32.29 0 63.549-6.566 92.91-19.515 5.438-2.398 8.947-7.781 8.947-13.725s-3.51-11.326-8.948-13.725z" fill="#f9f4c8"/><path d="m501.387 241.656-70.292-21.497-21.497-70.292c-1.929-6.306-7.75-10.613-14.344-10.613s-12.416 4.307-14.344 10.613l-21.497 70.292-70.292 21.497c-6.306 1.929-10.613 7.75-10.613 14.344s4.307 12.416 10.613 14.344l70.292 21.497 21.497 70.292c1.929 6.306 7.75 10.613 14.344 10.613s12.416-4.307 14.344-10.613l21.497-70.292 70.292-21.497c6.306-1.928 10.613-7.749 10.613-14.344s-4.307-12.415-10.613-14.344z" fill="#ffd92e"/><path d="m501.387 241.656-70.292-21.497-21.497-70.292c-1.929-6.306-7.75-10.613-14.344-10.613v233.493c6.595 0 12.416-4.307 14.344-10.613l21.497-70.292 70.292-21.497c6.306-1.929 10.613-7.75 10.613-14.345s-4.307-12.415-10.613-14.344z" fill="#fb3"/></g><g><path d="m323.365 439.491c-72.686-32.059-119.653-104.084-119.653-183.491 0-.78.013-1.558.022-2.337h-203.706c-.007.78-.028 1.556-.028 2.337 0 61.557 23.972 119.429 67.499 162.957 43.527 43.527 101.4 67.499 162.957 67.499 32.29 0 63.549-6.566 92.91-19.515 5.438-2.398 8.947-7.781 8.947-13.725s-3.51-11.326-8.948-13.725z" fill="#f9f1b4"/></g></svg>